<?xml version="1.0" encoding="utf-8"?>
<!-- Generator: Adobe Illustrator 24.0.2, SVG Export Plug-In . SVG Version: 6.00 Build 0)  -->
<svg version="1.1" id="Layer_1" xmlns="http://www.w3.org/2000/svg" xmlns:xlink="http://www.w3.org/1999/xlink" x="0px" y="0px"
	 width="373.2px" height="138.1px" viewBox="0 0 373.2 138.1" style="enable-background:new 0 0 373.2 138.1;" xml:space="preserve"
	>
<style type="text/css">
	.st0{fill:#FFFFFF;}
</style>
<g>
	<path class="st0" d="M33.6,83.2c-4.1,0-5.6-2-6.1-5.7L19.4,79c1,8.3,7.4,11.2,14.2,11.2c9.4,0,15.4-5,15.4-13
		c0-6.3-3.3-9.5-9.1-10.9v-0.2c4-1.3,8.2-4.6,8.2-10.3c0-6.7-4.7-10.6-13-10.6c-6.8,0-13.1,2.6-14.6,10.8l7.8,1.6
		c0.8-3.5,2.3-5.4,6-5.4c3.7,0,4.9,1.9,4.9,4.8c0,4-2.8,6.6-7.9,6.6h-2.8v6.8h4.3c4.6,0,7,1.6,7,6.2C39.7,81.2,37,83.2,33.6,83.2z"
		/>
	<path class="st0" d="M70.3,52.3c2.8,0,4.4,1.2,5.1,5.3l8-2.2c-1.6-7.8-6.5-10.1-12.4-10.1c-13.9,0-17.1,13.4-17.1,23.6
		c0,11.9,3,21.4,15,21.4c8.3,0,14.8-4.7,14.8-14.9c0-8.4-4.8-12.5-11.7-12.5c-4,0-7.3,1.5-9.4,3.3C62.7,59.5,64.9,52.3,70.3,52.3z
		 M69.4,69.6c3.7,0,5.1,2.1,5.1,6.4c0,4.4-1.7,7.3-5.3,7.3c-5,0-5.9-5.3-6.1-11C64.7,70.9,67.2,69.6,69.4,69.6z"/>
	<path class="st0" d="M87.7,67.7c0,14.4,3.5,22.6,15.5,22.6c12,0,15.9-8.1,15.9-23.1c0-13.8-3.2-21.9-15.3-21.9
		C91.8,45.3,87.7,53.3,87.7,67.7z M109.4,67.5c0,11.1-1.2,15.6-6.1,15.6c-5,0-6.1-4.6-6.1-15.4c0-11,1.4-15.3,6.3-15.3
		C108.5,52.4,109.4,56.7,109.4,67.5z"/>
	<path class="st0" d="M136.4,40.3c0-5.1-4.1-9.2-9.2-9.2s-9.2,4.1-9.2,9.2c0,5.1,4.1,9.2,9.2,9.2c0.5,0,0.9,0,1.3-0.1
		c2.1,6.4,3.2,13,3.2,19.9c0,34.5-28.1,62.6-62.6,62.6S6.7,103.7,6.7,69.2S34.7,6.7,69.2,6.7c15.6,0,30.5,5.7,42,16.2l2.7-3
		C101.6,8.8,85.8,2.7,69.2,2.7C32.5,2.7,2.7,32.5,2.7,69.2s29.9,66.6,66.6,66.6s66.6-29.9,66.6-66.6c0-7.4-1.2-14.5-3.5-21.3
		C134.8,46.3,136.4,43.5,136.4,40.3z"/>
	<polygon class="st0" points="142.8,53.8 155.8,53.8 155.8,90 165.3,90 165.3,53.8 178.1,53.8 178.1,45.9 142.8,45.9 	"/>
	<path class="st0" d="M216.1,58.3c0-6.5-3.7-12.4-14.6-12.4h-17.2V90h9.3V73.2h6l8.7,16.8h10.1l-10-19.1
		C213,68.9,216.1,64.8,216.1,58.3z M198.4,65.9h-4.8V53.4h5.2c5,0,7.6,1.6,7.6,5.8C206.4,64.2,202.8,65.9,198.4,65.9z"/>
	<path class="st0" d="M236.4,45.9L221.9,90h9.7l3.4-10.7h14.7l3.7,10.7h10.3l-15.6-44.2H236.4z M236.6,71.8l5.4-17.1h0.2l5.5,17.1
		H236.6z"/>
	<polygon class="st0" points="280.9,80.7 280.6,80.7 270.5,45.9 259.9,45.9 274.3,90 287,90 300.7,45.9 291,45.9 	"/>
	<polygon class="st0" points="315.6,71.8 333.1,71.8 333.1,64.1 315.6,64.1 315.6,53.7 334.2,53.7 334.2,45.9 306.2,45.9 306.2,90 
		335.3,90 335.3,82.1 315.6,82.1 	"/>
	<polygon class="st0" points="351.2,82.1 351.2,45.9 341.8,45.9 341.8,90 370.1,90 370.1,82.1 	"/>
</g>
</svg>
